<mxfile host="app.diagrams.net" agent="Mozilla/5.0 (Windows NT 10.0; Win64; x64) AppleWebKit/537.36 (KHTML, like Gecko) Chrome/137.0.0.0 Safari/537.36" version="27.1.4">
  <diagram name="Page-1" id="yH4UyKNVZuMKFkK7Ok53">
    <mxGraphModel dx="826" dy="441" grid="1" gridSize="10" guides="1" tooltips="1" connect="1" arrows="1" fold="1" page="1" pageScale="1" pageWidth="827" pageHeight="1169" math="0" shadow="0">
      <root>
        <mxCell id="0" />
        <mxCell id="1" parent="0" />
        <mxCell id="nCzMF_A1OV3WEUSn2PfO-6" style="edgeStyle=orthogonalEdgeStyle;rounded=0;orthogonalLoop=1;jettySize=auto;html=1;entryX=0;entryY=0.5;entryDx=0;entryDy=0;" parent="1" source="nCzMF_A1OV3WEUSn2PfO-1" target="nCzMF_A1OV3WEUSn2PfO-4" edge="1">
          <mxGeometry relative="1" as="geometry" />
        </mxCell>
        <mxCell id="nCzMF_A1OV3WEUSn2PfO-1" value="Player 1" style="shape=umlActor;verticalLabelPosition=bottom;verticalAlign=top;html=1;outlineConnect=0;" parent="1" vertex="1">
          <mxGeometry x="90" y="65" width="25" height="50" as="geometry" />
        </mxCell>
        <mxCell id="nCzMF_A1OV3WEUSn2PfO-9" style="edgeStyle=orthogonalEdgeStyle;rounded=0;orthogonalLoop=1;jettySize=auto;html=1;entryX=0;entryY=0.5;entryDx=0;entryDy=0;" parent="1" source="nCzMF_A1OV3WEUSn2PfO-4" target="nCzMF_A1OV3WEUSn2PfO-8" edge="1">
          <mxGeometry relative="1" as="geometry" />
        </mxCell>
        <mxCell id="nCzMF_A1OV3WEUSn2PfO-4" value="Create game lobby" style="rounded=1;whiteSpace=wrap;html=1;" parent="1" vertex="1">
          <mxGeometry x="150" y="70" width="80" height="40" as="geometry" />
        </mxCell>
        <mxCell id="nCzMF_A1OV3WEUSn2PfO-62" style="edgeStyle=orthogonalEdgeStyle;rounded=0;orthogonalLoop=1;jettySize=auto;html=1;entryX=0.5;entryY=0;entryDx=0;entryDy=0;" parent="1" source="nCzMF_A1OV3WEUSn2PfO-8" target="nCzMF_A1OV3WEUSn2PfO-22" edge="1">
          <mxGeometry relative="1" as="geometry">
            <Array as="points">
              <mxPoint x="400" y="90" />
            </Array>
          </mxGeometry>
        </mxCell>
        <mxCell id="nCzMF_A1OV3WEUSn2PfO-63" value="Start" style="edgeLabel;html=1;align=center;verticalAlign=middle;resizable=0;points=[];" parent="nCzMF_A1OV3WEUSn2PfO-62" vertex="1" connectable="0">
          <mxGeometry x="-0.265" y="1" relative="1" as="geometry">
            <mxPoint as="offset" />
          </mxGeometry>
        </mxCell>
        <mxCell id="nCzMF_A1OV3WEUSn2PfO-8" value="Handle lobby" style="rounded=1;whiteSpace=wrap;html=1;" parent="1" vertex="1">
          <mxGeometry x="260" y="70" width="80" height="40" as="geometry" />
        </mxCell>
        <mxCell id="nCzMF_A1OV3WEUSn2PfO-15" style="edgeStyle=orthogonalEdgeStyle;rounded=0;orthogonalLoop=1;jettySize=auto;html=1;entryX=0;entryY=0.5;entryDx=0;entryDy=0;" parent="1" source="nCzMF_A1OV3WEUSn2PfO-11" target="nCzMF_A1OV3WEUSn2PfO-14" edge="1">
          <mxGeometry relative="1" as="geometry" />
        </mxCell>
        <mxCell id="nCzMF_A1OV3WEUSn2PfO-11" value="Players 2..4" style="shape=umlActor;verticalLabelPosition=bottom;verticalAlign=top;html=1;outlineConnect=0;" parent="1" vertex="1">
          <mxGeometry x="90" y="150" width="25" height="50" as="geometry" />
        </mxCell>
        <mxCell id="nCzMF_A1OV3WEUSn2PfO-16" style="edgeStyle=orthogonalEdgeStyle;rounded=0;orthogonalLoop=1;jettySize=auto;html=1;entryX=0.5;entryY=1;entryDx=0;entryDy=0;" parent="1" source="nCzMF_A1OV3WEUSn2PfO-14" target="nCzMF_A1OV3WEUSn2PfO-8" edge="1">
          <mxGeometry relative="1" as="geometry" />
        </mxCell>
        <mxCell id="nCzMF_A1OV3WEUSn2PfO-14" value="Join game lobby" style="rounded=1;whiteSpace=wrap;html=1;" parent="1" vertex="1">
          <mxGeometry x="150" y="155" width="80" height="40" as="geometry" />
        </mxCell>
        <mxCell id="nCzMF_A1OV3WEUSn2PfO-17" style="edgeStyle=orthogonalEdgeStyle;rounded=0;orthogonalLoop=1;jettySize=auto;html=1;exitX=0.75;exitY=0;exitDx=0;exitDy=0;entryX=0.25;entryY=0;entryDx=0;entryDy=0;" parent="1" source="nCzMF_A1OV3WEUSn2PfO-8" target="nCzMF_A1OV3WEUSn2PfO-8" edge="1">
          <mxGeometry relative="1" as="geometry">
            <Array as="points">
              <mxPoint x="320" y="50" />
              <mxPoint x="280" y="50" />
            </Array>
          </mxGeometry>
        </mxCell>
        <mxCell id="nCzMF_A1OV3WEUSn2PfO-18" value="Wait" style="edgeLabel;html=1;align=center;verticalAlign=middle;resizable=0;points=[];" parent="nCzMF_A1OV3WEUSn2PfO-17" vertex="1" connectable="0">
          <mxGeometry x="-0.1722" y="-1" relative="1" as="geometry">
            <mxPoint x="-7" as="offset" />
          </mxGeometry>
        </mxCell>
        <mxCell id="nCzMF_A1OV3WEUSn2PfO-27" style="edgeStyle=orthogonalEdgeStyle;rounded=0;orthogonalLoop=1;jettySize=auto;html=1;entryX=0.5;entryY=0;entryDx=0;entryDy=0;" parent="1" source="nCzMF_A1OV3WEUSn2PfO-22" target="nCzMF_A1OV3WEUSn2PfO-25" edge="1">
          <mxGeometry relative="1" as="geometry" />
        </mxCell>
        <mxCell id="nCzMF_A1OV3WEUSn2PfO-22" value="Shuffle deck" style="rounded=1;whiteSpace=wrap;html=1;" parent="1" vertex="1">
          <mxGeometry x="360" y="115" width="80" height="25" as="geometry" />
        </mxCell>
        <mxCell id="oiFgTZFBRbPovsUpCb8z-10" style="edgeStyle=orthogonalEdgeStyle;rounded=0;orthogonalLoop=1;jettySize=auto;html=1;entryX=0.5;entryY=0;entryDx=0;entryDy=0;" edge="1" parent="1" source="nCzMF_A1OV3WEUSn2PfO-25" target="nCzMF_A1OV3WEUSn2PfO-30">
          <mxGeometry relative="1" as="geometry" />
        </mxCell>
        <mxCell id="nCzMF_A1OV3WEUSn2PfO-25" value="Draw hands" style="rounded=1;whiteSpace=wrap;html=1;" parent="1" vertex="1">
          <mxGeometry x="360" y="162.5" width="80" height="25" as="geometry" />
        </mxCell>
        <mxCell id="oiFgTZFBRbPovsUpCb8z-12" style="edgeStyle=orthogonalEdgeStyle;rounded=0;orthogonalLoop=1;jettySize=auto;html=1;entryX=0;entryY=0.5;entryDx=0;entryDy=0;" edge="1" parent="1" source="nCzMF_A1OV3WEUSn2PfO-28" target="nCzMF_A1OV3WEUSn2PfO-32">
          <mxGeometry relative="1" as="geometry" />
        </mxCell>
        <mxCell id="nCzMF_A1OV3WEUSn2PfO-28" value="Draw starting card" style="rounded=1;whiteSpace=wrap;html=1;" parent="1" vertex="1">
          <mxGeometry x="360" y="262" width="80" height="35" as="geometry" />
        </mxCell>
        <mxCell id="oiFgTZFBRbPovsUpCb8z-11" style="edgeStyle=orthogonalEdgeStyle;rounded=0;orthogonalLoop=1;jettySize=auto;html=1;entryX=0.5;entryY=0;entryDx=0;entryDy=0;" edge="1" parent="1" source="nCzMF_A1OV3WEUSn2PfO-30" target="nCzMF_A1OV3WEUSn2PfO-28">
          <mxGeometry relative="1" as="geometry" />
        </mxCell>
        <mxCell id="nCzMF_A1OV3WEUSn2PfO-30" value="Build crib" style="rounded=1;whiteSpace=wrap;html=1;" parent="1" vertex="1">
          <mxGeometry x="360" y="207" width="80" height="35" as="geometry" />
        </mxCell>
        <mxCell id="nCzMF_A1OV3WEUSn2PfO-44" style="edgeStyle=orthogonalEdgeStyle;rounded=0;orthogonalLoop=1;jettySize=auto;html=1;entryX=0.5;entryY=1;entryDx=0;entryDy=0;" parent="1" source="nCzMF_A1OV3WEUSn2PfO-32" target="nCzMF_A1OV3WEUSn2PfO-38" edge="1">
          <mxGeometry relative="1" as="geometry" />
        </mxCell>
        <mxCell id="nCzMF_A1OV3WEUSn2PfO-57" style="edgeStyle=orthogonalEdgeStyle;rounded=0;orthogonalLoop=1;jettySize=auto;html=1;entryX=0.5;entryY=1;entryDx=0;entryDy=0;" parent="1" source="nCzMF_A1OV3WEUSn2PfO-32" target="nCzMF_A1OV3WEUSn2PfO-47" edge="1">
          <mxGeometry relative="1" as="geometry">
            <Array as="points">
              <mxPoint x="500" y="322.5" />
              <mxPoint x="280" y="322.5" />
            </Array>
          </mxGeometry>
        </mxCell>
        <mxCell id="nCzMF_A1OV3WEUSn2PfO-32" value="Play hands" style="rounded=1;whiteSpace=wrap;html=1;" parent="1" vertex="1">
          <mxGeometry x="460" y="262.5" width="80" height="35" as="geometry" />
        </mxCell>
        <mxCell id="nCzMF_A1OV3WEUSn2PfO-41" style="edgeStyle=orthogonalEdgeStyle;rounded=0;orthogonalLoop=1;jettySize=auto;html=1;entryX=0.5;entryY=1;entryDx=0;entryDy=0;" parent="1" source="nCzMF_A1OV3WEUSn2PfO-38" target="nCzMF_A1OV3WEUSn2PfO-40" edge="1">
          <mxGeometry relative="1" as="geometry" />
        </mxCell>
        <mxCell id="nCzMF_A1OV3WEUSn2PfO-54" style="edgeStyle=orthogonalEdgeStyle;rounded=0;orthogonalLoop=1;jettySize=auto;html=1;entryX=0.5;entryY=1;entryDx=0;entryDy=0;" parent="1" source="nCzMF_A1OV3WEUSn2PfO-38" target="nCzMF_A1OV3WEUSn2PfO-47" edge="1">
          <mxGeometry relative="1" as="geometry">
            <Array as="points">
              <mxPoint x="600" y="196.5" />
              <mxPoint x="600" y="322.5" />
              <mxPoint x="280" y="322.5" />
            </Array>
          </mxGeometry>
        </mxCell>
        <mxCell id="nCzMF_A1OV3WEUSn2PfO-38" value="Score hands" style="rounded=1;whiteSpace=wrap;html=1;" parent="1" vertex="1">
          <mxGeometry x="460" y="178.5" width="80" height="35" as="geometry" />
        </mxCell>
        <mxCell id="nCzMF_A1OV3WEUSn2PfO-43" style="edgeStyle=orthogonalEdgeStyle;rounded=0;orthogonalLoop=1;jettySize=auto;html=1;entryX=1;entryY=0.5;entryDx=0;entryDy=0;" parent="1" source="nCzMF_A1OV3WEUSn2PfO-40" target="nCzMF_A1OV3WEUSn2PfO-22" edge="1">
          <mxGeometry relative="1" as="geometry" />
        </mxCell>
        <mxCell id="nCzMF_A1OV3WEUSn2PfO-56" style="edgeStyle=orthogonalEdgeStyle;rounded=0;orthogonalLoop=1;jettySize=auto;html=1;entryX=0.5;entryY=1;entryDx=0;entryDy=0;" parent="1" source="nCzMF_A1OV3WEUSn2PfO-40" target="nCzMF_A1OV3WEUSn2PfO-47" edge="1">
          <mxGeometry relative="1" as="geometry">
            <Array as="points">
              <mxPoint x="600" y="127.5" />
              <mxPoint x="600" y="322.5" />
              <mxPoint x="280" y="322.5" />
            </Array>
          </mxGeometry>
        </mxCell>
        <mxCell id="nCzMF_A1OV3WEUSn2PfO-40" value="Score crib" style="rounded=1;whiteSpace=wrap;html=1;" parent="1" vertex="1">
          <mxGeometry x="460" y="110" width="80" height="35" as="geometry" />
        </mxCell>
        <mxCell id="nCzMF_A1OV3WEUSn2PfO-45" style="edgeStyle=orthogonalEdgeStyle;rounded=0;orthogonalLoop=1;jettySize=auto;html=1;exitX=0.75;exitY=0;exitDx=0;exitDy=0;entryX=1;entryY=0.5;entryDx=0;entryDy=0;" parent="1" source="nCzMF_A1OV3WEUSn2PfO-32" target="nCzMF_A1OV3WEUSn2PfO-32" edge="1">
          <mxGeometry relative="1" as="geometry">
            <Array as="points">
              <mxPoint x="520" y="242.5" />
              <mxPoint x="560" y="242.5" />
              <mxPoint x="560" y="280.5" />
            </Array>
          </mxGeometry>
        </mxCell>
        <mxCell id="nCzMF_A1OV3WEUSn2PfO-46" value="Cards left&lt;div&gt;to play&lt;/div&gt;" style="edgeLabel;html=1;align=center;verticalAlign=middle;resizable=0;points=[];" parent="nCzMF_A1OV3WEUSn2PfO-45" vertex="1" connectable="0">
          <mxGeometry x="-0.2784" relative="1" as="geometry">
            <mxPoint x="18" y="-1" as="offset" />
          </mxGeometry>
        </mxCell>
        <mxCell id="nCzMF_A1OV3WEUSn2PfO-51" style="edgeStyle=orthogonalEdgeStyle;rounded=0;orthogonalLoop=1;jettySize=auto;html=1;entryX=1;entryY=0.5;entryDx=0;entryDy=0;" parent="1" source="nCzMF_A1OV3WEUSn2PfO-47" target="nCzMF_A1OV3WEUSn2PfO-48" edge="1">
          <mxGeometry relative="1" as="geometry" />
        </mxCell>
        <mxCell id="nCzMF_A1OV3WEUSn2PfO-47" value="Win game" style="rounded=1;whiteSpace=wrap;html=1;" parent="1" vertex="1">
          <mxGeometry x="240" y="270" width="80" height="20" as="geometry" />
        </mxCell>
        <mxCell id="nCzMF_A1OV3WEUSn2PfO-66" style="edgeStyle=orthogonalEdgeStyle;rounded=0;orthogonalLoop=1;jettySize=auto;html=1;entryX=1;entryY=0.5;entryDx=0;entryDy=0;" parent="1" source="nCzMF_A1OV3WEUSn2PfO-48" target="nCzMF_A1OV3WEUSn2PfO-64" edge="1">
          <mxGeometry relative="1" as="geometry" />
        </mxCell>
        <mxCell id="nCzMF_A1OV3WEUSn2PfO-48" value="Delete lobby" style="rounded=1;whiteSpace=wrap;html=1;" parent="1" vertex="1">
          <mxGeometry x="140" y="270" width="80" height="20" as="geometry" />
        </mxCell>
        <mxCell id="nCzMF_A1OV3WEUSn2PfO-58" value="Score &amp;gt; 121" style="text;html=1;align=center;verticalAlign=middle;whiteSpace=wrap;rounded=0;fillColor=default;" parent="1" vertex="1">
          <mxGeometry x="300" y="312.5" width="70" height="20" as="geometry" />
        </mxCell>
        <mxCell id="nCzMF_A1OV3WEUSn2PfO-64" value="" style="ellipse;whiteSpace=wrap;html=1;aspect=fixed;" parent="1" vertex="1">
          <mxGeometry x="87.5" y="265" width="30" height="30" as="geometry" />
        </mxCell>
        <mxCell id="nCzMF_A1OV3WEUSn2PfO-65" value="" style="ellipse;whiteSpace=wrap;html=1;aspect=fixed;fillColor=#000000;" parent="1" vertex="1">
          <mxGeometry x="92.5" y="270" width="20" height="20" as="geometry" />
        </mxCell>
        <mxCell id="oiFgTZFBRbPovsUpCb8z-9" value="" style="endArrow=none;html=1;rounded=0;" edge="1" parent="1" target="nCzMF_A1OV3WEUSn2PfO-28">
          <mxGeometry width="50" height="50" relative="1" as="geometry">
            <mxPoint x="400" y="323" as="sourcePoint" />
            <mxPoint x="400" y="300" as="targetPoint" />
          </mxGeometry>
        </mxCell>
      </root>
    </mxGraphModel>
  </diagram>
</mxfile>
